<svg xmlns="http://www.w3.org/2000/svg" width="1200" height="600" viewBox="0 0 1200 600">
  <!-- Background Gradient -->
  <defs>
    <linearGradient id="bg-gradient" x1="0%" y1="0%" x2="100%" y2="100%">
      <stop offset="0%" stop-color="#2563eb" stop-opacity="0.8"/>
      <stop offset="100%" stop-color="#1e40af" stop-opacity="0.9"/>
    </linearGradient>
  </defs>
  
  <!-- Background -->
  <rect width="1200" height="600" fill="url(#bg-gradient)"/>
  
  <!-- City Skyline -->
  <g fill="#ffffff" fill-opacity="0.1" stroke="#ffffff" stroke-width="1" stroke-opacity="0.3">
    <!-- Buildings -->
    <rect x="100" y="300" width="80" height="300"/>
    <rect x="110" y="350" width="15" height="20"/>
    <rect x="135" y="350" width="15" height="20"/>
    <rect x="155" y="350" width="15" height="20"/>
    <rect x="110" y="380" width="15" height="20"/>
    <rect x="135" y="380" width="15" height="20"/>
    <rect x="155" y="380" width="15" height="20"/>
    <rect x="110" y="410" width="15" height="20"/>
    <rect x="135" y="410" width="15" height="20"/>
    <rect x="155" y="410" width="15" height="20"/>
    
    <rect x="200" y="250" width="100" height="350"/>
    <rect x="220" y="270" width="20" height="30"/>
    <rect x="260" y="270" width="20" height="30"/>
    <rect x="220" y="310" width="20" height="30"/>
    <rect x="260" y="310" width="20" height="30"/>
    <rect x="220" y="350" width="20" height="30"/>
    <rect x="260" y="350" width="20" height="30"/>
    <rect x="220" y="390" width="20" height="30"/>
    <rect x="260" y="390" width="20" height="30"/>
    <rect x="220" y="430" width="20" height="30"/>
    <rect x="260" y="430" width="20" height="30"/>
    <rect x="220" y="470" width="20" height="30"/>
    <rect x="260" y="470" width="20" height="30"/>
    
    <rect x="320" y="350" width="70" height="250"/>
    <rect x="330" y="370" width="15" height="20"/>
    <rect x="365" y="370" width="15" height="20"/>
    <rect x="330" y="400" width="15" height="20"/>
    <rect x="365" y="400" width="15" height="20"/>
    <rect x="330" y="430" width="15" height="20"/>
    <rect x="365" y="430" width="15" height="20"/>
    <rect x="330" y="460" width="15" height="20"/>
    <rect x="365" y="460" width="15" height="20"/>
    
    <rect x="410" y="200" width="120" height="400"/>
    <rect x="430" y="220" width="25" height="35"/>
    <rect x="485" y="220" width="25" height="35"/>
    <rect x="430" y="265" width="25" height="35"/>
    <rect x="485" y="265" width="25" height="35"/>
    <rect x="430" y="310" width="25" height="35"/>
    <rect x="485" y="310" width="25" height="35"/>
    <rect x="430" y="355" width="25" height="35"/>
    <rect x="485" y="355" width="25" height="35"/>
    <rect x="430" y="400" width="25" height="35"/>
    <rect x="485" y="400" width="25" height="35"/>
    <rect x="430" y="445" width="25" height="35"/>
    <rect x="485" y="445" width="25" height="35"/>
    
    <rect x="550" y="280" width="90" height="320"/>
    <rect x="560" y="300" width="20" height="25"/>
    <rect x="610" y="300" width="20" height="25"/>
    <rect x="560" y="335" width="20" height="25"/>
    <rect x="610" y="335" width="20" height="25"/>
    <rect x="560" y="370" width="20" height="25"/>
    <rect x="610" y="370" width="20" height="25"/>
    <rect x="560" y="405" width="20" height="25"/>
    <rect x="610" y="405" width="20" height="25"/>
    <rect x="560" y="440" width="20" height="25"/>
    <rect x="610" y="440" width="20" height="25"/>
    <rect x="560" y="475" width="20" height="25"/>
    <rect x="610" y="475" width="20" height="25"/>
    
    <rect x="660" y="320" width="60" height="280"/>
    <rect x="670" y="340" width="15" height="20"/>
    <rect x="695" y="340" width="15" height="20"/>
    <rect x="670" y="370" width="15" height="20"/>
    <rect x="695" y="370" width="15" height="20"/>
    <rect x="670" y="400" width="15" height="20"/>
    <rect x="695" y="400" width="15" height="20"/>
    <rect x="670" y="430" width="15" height="20"/>
    <rect x="695" y="430" width="15" height="20"/>
    <rect x="670" y="460" width="15" height="20"/>
    <rect x="695" y="460" width="15" height="20"/>
    
    <rect x="740" y="250" width="110" height="350"/>
    <rect x="760" y="270" width="25" height="30"/>
    <rect x="805" y="270" width="25" height="30"/>
    <rect x="760" y="310" width="25" height="30"/>
    <rect x="805" y="310" width="25" height="30"/>
    <rect x="760" y="350" width="25" height="30"/>
    <rect x="805" y="350" width="25" height="30"/>
    <rect x="760" y="390" width="25" height="30"/>
    <rect x="805" y="390" width="25" height="30"/>
    <rect x="760" y="430" width="25" height="30"/>
    <rect x="805" y="430" width="25" height="30"/>
    <rect x="760" y="470" width="25" height="30"/>
    <rect x="805" y="470" width="25" height="30"/>
    
    <rect x="870" y="300" width="80" height="300"/>
    <rect x="880" y="320" width="20" height="25"/>
    <rect x="920" y="320" width="20" height="25"/>
    <rect x="880" y="355" width="20" height="25"/>
    <rect x="920" y="355" width="20" height="25"/>
    <rect x="880" y="390" width="20" height="25"/>
    <rect x="920" y="390" width="20" height="25"/>
    <rect x="880" y="425" width="20" height="25"/>
    <rect x="920" y="425" width="20" height="25"/>
    <rect x="880" y="460" width="20" height="25"/>
    <rect x="920" y="460" width="20" height="25"/>
    
    <rect x="970" y="350" width="70" height="250"/>
    <rect x="980" y="370" width="15" height="20"/>
    <rect x="1015" y="370" width="15" height="20"/>
    <rect x="980" y="400" width="15" height="20"/>
    <rect x="1015" y="400" width="15" height="20"/>
    <rect x="980" y="430" width="15" height="20"/>
    <rect x="1015" y="430" width="15" height="20"/>
    <rect x="980" y="460" width="15" height="20"/>
    <rect x="1015" y="460" width="15" height="20"/>
    
    <rect x="1060" y="280" width="90" height="320"/>
    <rect x="1070" y="300" width="20" height="25"/>
    <rect x="1120" y="300" width="20" height="25"/>
    <rect x="1070" y="335" width="20" height="25"/>
    <rect x="1120" y="335" width="20" height="25"/>
    <rect x="1070" y="370" width="20" height="25"/>
    <rect x="1120" y="370" width="20" height="25"/>
    <rect x="1070" y="405" width="20" height="25"/>
    <rect x="1120" y="405" width="20" height="25"/>
    <rect x="1070" y="440" width="20" height="25"/>
    <rect x="1120" y="440" width="20" height="25"/>
    <rect x="1070" y="475" width="20" height="25"/>
    <rect x="1120" y="475" width="20" height="25"/>
  </g>
  
  <!-- Overlay Text -->
  <text x="600" y="200" font-family="Montserrat, sans-serif" font-size="48" font-weight="700" text-anchor="middle" fill="#ffffff">Premium Real Estate in Salem</text>
  <text x="600" y="260" font-family="Open Sans, sans-serif" font-size="24" font-weight="400" text-anchor="middle" fill="#ffffff">Discover your dream property with trusted developers</text>
</svg>